<mxfile host="65bd71144e">
    <diagram id="17Rdm5tTzwF7dkyEERoV" name="PÃ¡gina-1">
        <mxGraphModel dx="2021" dy="2086" grid="0" gridSize="10" guides="1" tooltips="1" connect="1" arrows="1" fold="1" page="1" pageScale="1" pageWidth="827" pageHeight="1169" background="#ffffff" math="0" shadow="0">
            <root>
                <mxCell id="0"/>
                <mxCell id="1" parent="0"/>
                <mxCell id="5" value="UmaClasse" style="swimlane;fontStyle=0;childLayout=stackLayout;horizontal=1;startSize=50;fillColor=none;horizontalStack=0;resizeParent=1;resizeParentMax=0;resizeLast=0;collapsible=1;marginBottom=0;rounded=0;shadow=0;sketch=0;fontColor=#000000;strokeColor=#000000;" parent="1" vertex="1">
                    <mxGeometry x="-763" y="-1104" width="178" height="212" as="geometry">
                        <mxRectangle x="-505" y="-802" width="89" height="50" as="alternateBounds"/>
                    </mxGeometry>
                </mxCell>
                <mxCell id="6" value="- nome: string&#10;+ sobrenome: string&#10;# idade: number" style="text;strokeColor=#000000;fillColor=none;align=left;verticalAlign=top;spacingLeft=4;spacingRight=4;overflow=hidden;rotatable=0;points=[[0,0.5],[1,0.5]];portConstraint=eastwest;fontColor=#000000;" parent="5" vertex="1">
                    <mxGeometry y="50" width="178" height="57" as="geometry"/>
                </mxCell>
                <mxCell id="9" value="+ getNome(): string&#10;+ getIdade(): string&#10;+ setNome(none: string)&#10;+ setIdade(idade: number)" style="text;strokeColor=#000000;fillColor=none;align=left;verticalAlign=top;spacingLeft=4;spacingRight=4;overflow=hidden;rotatable=0;points=[[0,0.5],[1,0.5]];portConstraint=eastwest;fontColor=#000000;" parent="5" vertex="1">
                    <mxGeometry y="107" width="178" height="105" as="geometry"/>
                </mxCell>
            </root>
        </mxGraphModel>
    </diagram>
</mxfile>